<svg width="217" height="68" viewBox="0 0 217 68" fill="none" xmlns="http://www.w3.org/2000/svg">
<g clip-path="url(#clip0_206_1322)">
<path d="M100.024 18.672H86.584V33.072H98.68C98.936 33.072 99.192 33.2 99.448 33.456C99.768 33.648 99.928 33.936 99.928 34.32V34.992C99.928 35.568 99.768 35.952 99.448 36.144C99.192 36.336 98.936 36.432 98.68 36.432H86.584V52.656C86.584 52.976 86.488 53.296 86.296 53.616C86.104 53.872 85.784 54 85.336 54H84.664C83.832 54 83.416 53.552 83.416 52.656V16.656C83.416 16.272 83.512 15.952 83.704 15.696C83.896 15.376 84.216 15.216 84.664 15.216H100.024C100.856 15.216 101.272 15.664 101.272 16.56V17.328C101.272 17.776 101.112 18.128 100.792 18.384C100.536 18.576 100.28 18.672 100.024 18.672ZM125.908 54H109.876C109.044 54 108.628 53.552 108.628 52.656V16.656C108.628 16.272 108.724 15.952 108.916 15.696C109.108 15.376 109.428 15.216 109.876 15.216H110.548C111.06 15.216 111.412 15.376 111.604 15.696C111.796 16.016 111.892 16.336 111.892 16.656V50.448H125.908C126.228 50.448 126.484 50.608 126.676 50.928C126.932 51.184 127.06 51.472 127.06 51.792V52.656C127.06 53.104 126.932 53.456 126.676 53.712C126.484 53.904 126.228 54 125.908 54ZM148.05 54H141.522C139.09 54 137.202 53.264 135.858 51.792C134.514 50.256 133.842 48.048 133.842 45.168V24.048C133.842 21.36 134.514 19.216 135.858 17.616C137.202 16.016 139.09 15.216 141.522 15.216H148.05C150.482 15.216 152.402 16.016 153.81 17.616C155.218 19.216 155.922 21.36 155.922 24.048V45.168C155.922 48.048 155.218 50.256 153.81 51.792C152.466 53.264 150.546 54 148.05 54ZM152.658 24.048C152.658 20.464 151.122 18.672 148.05 18.672H141.522C138.514 18.672 137.01 20.464 137.01 24.048V45.072C137.01 48.72 138.514 50.544 141.522 50.544H148.05C151.122 50.544 152.658 48.72 152.658 45.072V24.048ZM196.288 52.752C196.096 53.584 195.616 54 194.848 54H193.408C192.64 54 192.128 53.616 191.872 52.848L183.52 21.648L175.168 52.848C175.04 53.168 174.848 53.456 174.592 53.712C174.4 53.904 174.112 54 173.728 54H172.288C171.776 54 171.392 53.936 171.136 53.808C170.944 53.616 170.784 53.264 170.656 52.752L162.592 16.944C162.464 16.368 162.56 15.952 162.88 15.696C163.2 15.376 163.584 15.216 164.032 15.216H164.704C165.408 15.216 165.92 15.664 166.24 16.56L173.056 47.568L181.408 16.368C181.6 16.048 181.792 15.792 181.984 15.6C182.24 15.344 182.56 15.216 182.944 15.216H184C184.384 15.216 184.672 15.344 184.864 15.6C185.12 15.792 185.312 16.048 185.44 16.368L193.888 47.664L200.8 16.464C200.928 16.144 201.088 15.856 201.28 15.6C201.472 15.344 201.824 15.216 202.336 15.216H203.104C203.808 15.216 204.192 15.408 204.256 15.792C204.384 16.112 204.384 16.432 204.256 16.752L196.288 52.752Z" fill="black"/>
<path d="M26.8994 13.1699C33.6043 9.41536 42.0492 8.88396 48.3037 12.1777C51.4518 13.8357 53.5741 16.3052 54.4736 19.5684C55.8433 21.314 56.6732 23.4417 56.8984 25.9463C56.993 26.9978 56.7289 28.0275 56.2725 28.9639C55.6781 30.1828 54.2089 30.8281 52.835 30.5879C52.0567 30.4517 51.4205 30.1164 50.9492 29.6025C50.9112 29.5973 50.8728 29.5945 50.835 29.5879C49.5749 29.3675 48.6833 28.6293 48.2715 27.4463C47.6401 27.2361 47.128 26.8705 46.751 26.3633C46.6778 26.4864 46.6155 26.6224 46.5664 26.7715C45.4639 30.1255 40.5709 30.735 38.1826 28.6826C37.2246 28.4423 36.3582 27.9645 35.751 27.25C35.3766 26.8094 34.9718 26.3941 34.5713 25.9756C34.2657 25.7689 33.9877 25.5286 33.751 25.25C33.2394 24.648 32.669 24.0955 32.1338 23.5137C32.0473 23.4486 31.9613 23.3835 31.873 23.3223C28.777 22.3245 25.2317 23.5543 23.0176 28.0977C20.1663 33.9486 20.425 39.8479 22.541 45.8398C22.7306 46.3768 22.934 46.9061 23.1494 47.4297C23.8835 48.6585 24.7263 49.8726 25.707 51.0879C25.313 50.8568 24.9292 50.6232 24.5547 50.3887C25.4184 51.9769 26.4504 53.5307 27.707 55.0879C26.8581 54.5901 26.0562 54.0847 25.2949 53.5664C25.4296 53.74 25.5669 53.9142 25.707 54.0879C22.7147 52.3333 20.3008 50.5023 18.2266 48.2344C18.171 48.1736 18.1175 48.1108 18.0625 48.0498C17.4206 47.4734 16.8096 46.8718 16.2266 46.2344C12.8144 42.5036 10.4576 38.1945 9.12598 33.3125C8.90855 32.5153 8.95289 31.871 9.41602 31.1475C12.0221 27.0767 14.7507 23.1078 18.0918 19.5859C19.0915 18.5322 20.2116 17.6313 21.2803 16.665C22.9779 15.2368 24.883 14.0687 26.8994 13.1699Z" fill="#BFFFFF"/>
<path d="M23.9067 23.7793C25.0962 22.3257 26.2272 21.9838 27.5356 22.6133C27.9803 22.8272 28.3178 23.0162 28.561 23.208C29.2687 22.8568 29.9885 22.8834 30.7729 23.2607C32.3637 24.0261 32.5959 24.4545 31.9614 25.9434C32.4605 26.4411 32.3633 27.0131 31.8403 28.1641C30.9094 30.2126 30.4522 32.3549 30.3247 34.5635C30.6927 39.1763 32.4559 42.9511 35.6997 45.9824C37.8097 47.9542 40.1476 49.2238 42.6538 49.9551C44.3027 50.1466 46.0079 50.1549 47.7554 50.0156C51.6337 49.7066 55.2275 48.4166 58.7388 46.8389C58.9301 46.7529 59.1332 46.6921 59.6587 46.499C58.3506 47.9908 56.9477 48.9704 55.5464 49.8564C57.7475 49.2672 59.877 48.4295 61.9761 47.4863C62.1673 47.4004 62.37 47.3394 62.895 47.1465C61.3551 48.9025 59.6856 49.951 58.0396 50.9697C57.9691 51.0133 57.8973 51.0546 57.8267 51.0977C59.2299 50.6118 60.6097 50.0427 61.9761 49.4287C62.1673 49.3428 62.37 49.2817 62.895 49.0889C61.3551 50.8449 59.6856 51.8934 58.0396 52.9121C54.186 55.2971 49.9567 56.9497 45.4438 57.0439C44.6676 57.0601 43.9048 57.0445 43.1567 56.999C42.8414 57.0209 42.5247 57.0373 42.2065 57.0439C34.3466 57.2078 27.8867 54.3204 23.8198 46.1602C21.9374 42.383 20.8824 38.4601 21.1519 34.2979C21.0567 32.8349 21.1199 31.3435 21.3638 29.8193C21.7195 27.5962 22.4685 25.5369 23.9067 23.7793Z" fill="#0064A3"/>
<path d="M32.5376 27.6145C33.0229 27.9446 33.5332 28.2625 34.0659 28.5569C34.1657 28.4527 34.2974 28.3533 34.48 28.262C35.7303 29.1124 37.1418 29.889 38.6968 30.3596C39.4279 30.5809 39.1393 31.1219 39.019 31.5881C38.6642 32.9651 38.5633 34.3558 38.9038 35.7434C39.5377 38.3259 40.9806 40.1642 43.0776 41.1653C43.6056 41.2765 44.1617 41.3498 44.7446 41.3801C48.9225 41.5975 52.8852 40.7979 56.73 39.1516C59.9969 37.7527 63.1956 36.1242 66.7651 35.5569C67.0266 35.5153 67.2839 35.3844 67.7632 35.6663C67.6088 35.9453 67.4579 36.2163 67.311 36.4817C67.7707 36.3727 68.2359 36.2793 68.7075 36.2043C68.969 36.1627 69.2263 36.0319 69.7056 36.3137C69.3559 36.9456 69.032 37.54 68.7017 38.1067C68.806 38.1319 68.9229 38.1772 69.0571 38.2561C67.654 40.7922 66.6828 42.7341 63.9214 44.635C62.317 45.7394 60.4916 46.5947 59.562 46.9417C56.2675 48.2319 54.8927 48.5929 51.5435 49.1184C47.2881 49.786 43.1265 49.8222 39.1558 47.7385C36.4046 46.2948 34.3088 43.6803 33.1675 40.7034C30.867 37.0632 30.1588 32.3033 31.8081 28.4377C31.9312 28.1492 32.0592 27.8537 32.5376 27.6145Z" fill="#004587"/>
<path fill-rule="evenodd" clip-rule="evenodd" d="M17.7011 17.3035C24.8328 9.95713 33.4302 6.82914 43.5733 8.39328C51.1308 9.55877 57.4051 15.0473 58.3908 22.6412C58.8899 26.4864 56.8833 30.3013 53.5778 31.3896C50.8928 32.2735 48.5138 31.6636 46.4239 29.8046C46.0996 29.5162 45.8191 28.9354 45.3314 29.2041C44.3535 29.7431 43.0808 29.9832 42.477 30.9331C41.3379 32.7253 40.9959 34.7615 41.9314 36.7513C42.7561 38.5052 44.4382 38.9421 46.2298 39.0506C49.2988 39.2364 52.2659 38.7247 55.0996 37.5864C59.7369 35.7235 67.7208 33.3171 68.3682 32.9934C69.0156 32.6697 69.3392 32.6697 69.3392 32.6697C69.3392 32.6697 69.6629 32.6697 70.171 32.8544C70.679 33.039 73.2645 33.8427 73.2235 34.794C73.1824 35.7453 62.5478 54.0008 52.6599 57.7783C39.2488 62.9016 23.2876 59.0412 14.035 47.4677C10.5598 43.1207 8.19137 38.2789 7.07823 32.702C7.00395 32.2928 6.90633 31.7165 7.19145 31.0513C8.16262 28.7855 10.2323 26.4432 10.2323 26.4432C10.8137 25.6277 10.5674 25.9442 11.0756 25.2249C13.1854 22.239 15.1446 19.937 17.7011 17.3035ZM28.8771 24.3627C27.5686 23.7332 26.4378 24.0754 25.2483 25.5291C23.8101 27.2867 23.0613 29.3453 22.7056 31.5685C21.9261 36.4399 22.9963 40.9764 25.1611 45.3201C29.2279 53.4804 35.688 56.3673 43.548 56.2034C48.0609 56.1093 52.2903 54.4571 56.1439 52.072C57.7901 51.0532 59.4599 50.0047 60.9999 48.2485C60.4742 48.4416 60.2715 48.5026 60.08 48.5886C56.5687 50.1664 52.9752 51.4557 49.0968 51.7648C43.382 52.2201 38.1178 51.1159 33.8039 47.0846C30.4263 43.9283 28.6539 39.9661 28.3903 35.0911C28.3881 32.3979 28.8224 29.7929 29.9443 27.3239C30.7244 25.607 30.563 25.1738 28.8771 24.3627ZM48.2092 13.7082C40.7619 9.78594 30.2087 11.2868 23.1854 17.1954C22.1167 18.1616 20.9969 19.0618 19.9972 20.1155C16.656 23.6375 13.9271 27.6062 11.3209 31.6772C10.8577 32.4008 10.8133 33.0453 11.0307 33.8425C12.3624 38.7246 14.7194 43.0332 18.1316 46.7641C20.2059 49.0321 22.6194 50.8629 25.6118 52.6176C23.188 49.6141 21.5963 46.6272 20.4461 43.3704C18.3299 37.3783 18.0714 31.4788 20.9228 25.6277C24.1422 19.0214 30.1761 19.4211 33.551 23.4877C34.2127 24.285 34.985 24.99 35.6562 25.7801C37.8253 28.3327 43.297 27.8735 44.471 24.302C44.922 22.9297 46.4888 22.6551 47.4158 23.5674C47.9169 24.0606 47.8928 24.6997 48.0044 25.3186C48.2871 26.8873 49.2604 27.8591 50.7399 28.1179C52.114 28.3583 53.5835 27.7129 54.1778 26.4938C54.6342 25.5574 54.8982 24.5278 54.8037 23.4763C54.4024 19.014 52.0816 15.7477 48.2092 13.7082ZM33.5756 28.8791C33.0971 29.1183 32.9686 29.4136 32.8455 29.7022C30.3501 35.5507 33.2488 43.4489 38.8988 46.4138C42.8695 48.4975 47.0308 48.4615 51.2861 47.7939C54.6357 47.2684 56.0105 46.9075 59.3051 45.6172C60.2347 45.2702 62.0602 44.4148 63.6646 43.3103C66.4262 41.4093 67.3973 39.4671 68.8006 36.9308C68.3213 36.6489 68.0645 36.7798 67.803 36.8214C64.2334 37.3887 61.035 39.0172 57.7681 40.4161C53.9232 42.0626 49.9602 42.8621 45.7822 42.6446C41.7165 42.433 38.9494 40.2325 37.9991 36.3612C37.6585 34.9735 37.7593 33.5828 38.1142 32.2057C38.2344 31.7394 38.5237 31.1987 37.7924 30.9774C36.2373 30.5068 34.826 29.7296 33.5756 28.8791Z" fill="#000F38"/>
</g>
<defs>
<clipPath id="clip0_206_1322">
<rect width="217" height="68" fill="white"/>
</clipPath>
</defs>
</svg>
