<svg width="259" height="100" viewBox="0 0 259 100" fill="none" xmlns="http://www.w3.org/2000/svg">
<path d="M21.1 49C20.7 48.135 20.4 47.239 20.2 46.3122C20.0667 45.3854 20 44.5203 20 43.7171C20 40.6276 21.0667 37.9089 23.2 35.561C25.4 33.1512 28.8333 31.9463 33.5 31.9463C35.5 31.9463 37.7 32.1317 40.1 32.5024C42.5 32.8732 45 33.2748 47.6 33.7073C50.2 34.078 52.7333 34.2634 55.2 34.2634C57.6667 34.2634 60.0333 33.9545 62.3 33.3366C64.5667 32.7187 66.6333 31.6065 68.5 30C69.5 32.039 70 34.1089 70 36.2098C70 39.1756 68.9333 41.7707 66.8 43.9951C64.7333 46.1577 61.3333 47.239 56.6 47.239C54.4 47.239 51.9667 47.0228 49.3 46.5902C46.6333 46.1577 43.9333 45.7252 41.2 45.2927C38.4667 44.8602 35.8333 44.6439 33.3 44.6439C30.9 44.6439 28.6333 44.9528 26.5 45.5707C24.4333 46.1886 22.6333 47.3317 21.1 49Z" fill="black"/>
<path d="M30.1 69C29.7 68.135 29.4 67.239 29.2 66.3122C29.0667 65.3854 29 64.5203 29 63.7171C29 60.6276 30.0667 57.9089 32.2 55.561C34.4 53.1512 37.8333 51.9463 42.5 51.9463C44.5 51.9463 46.7 52.1317 49.1 52.5024C51.5 52.8732 54 53.2748 56.6 53.7073C59.2 54.078 61.7333 54.2634 64.2 54.2634C66.6667 54.2634 69.0333 53.9545 71.3 53.3366C73.5667 52.7187 75.6333 51.6065 77.5 50C78.5 52.039 79 54.1089 79 56.2098C79 59.1756 77.9333 61.7707 75.8 63.9951C73.7333 66.1577 70.3333 67.239 65.6 67.239C63.4 67.239 60.9667 67.0228 58.3 66.5902C55.6333 66.1577 52.9333 65.7252 50.2 65.2927C47.4667 64.8602 44.8333 64.6439 42.3 64.6439C39.9 64.6439 37.6333 64.9528 35.5 65.5707C33.4333 66.1886 31.6333 67.3317 30.1 69Z" fill="black"/>
<path d="M104.041 72V44.928H98.9213V39.936H104.041V36.032C104.041 32.2773 105.087 29.312 107.177 27.136C109.268 24.96 111.999 23.872 115.369 23.872C117.119 23.872 118.655 24.0853 119.977 24.512C121.3 24.896 122.559 25.3867 123.753 25.984L122.025 30.848C121.129 30.3787 120.169 29.952 119.145 29.568C118.121 29.184 116.991 28.992 115.753 28.992C113.961 28.992 112.511 29.568 111.401 30.72C110.335 31.8293 109.801 33.472 109.801 35.648V39.936H119.657V44.928H109.801V72H104.041ZM135.763 72.768C133.801 72.768 132.03 72.4053 130.451 71.68C128.873 70.912 127.614 69.696 126.675 68.032C125.779 66.368 125.331 64.2133 125.331 61.568V24.64H131.091V60.992C131.091 63.296 131.561 65.0027 132.499 66.112C133.481 67.2213 134.825 67.776 136.531 67.776C137.342 67.776 138.131 67.6907 138.899 67.52C139.71 67.3067 140.393 67.072 140.947 66.816L142.355 71.488C141.587 71.8293 140.627 72.128 139.475 72.384C138.366 72.64 137.129 72.768 135.763 72.768ZM160.855 72.768C157.697 72.768 154.86 72.0427 152.343 70.592C149.825 69.0987 147.841 67.0507 146.391 64.448C144.983 61.8027 144.279 58.7733 144.279 55.36C144.279 51.776 145.004 48.6827 146.455 46.08C147.905 43.4773 149.889 41.472 152.407 40.064C154.924 38.656 157.74 37.952 160.855 37.952C163.969 37.952 166.764 38.656 169.239 40.064C171.756 41.472 173.74 43.4773 175.191 46.08C176.684 48.64 177.431 51.6907 177.431 55.232C177.431 58.7733 176.705 61.8667 175.255 64.512C173.804 67.1147 171.82 69.1413 169.303 70.592C166.828 72.0427 164.012 72.768 160.855 72.768ZM160.855 67.648C164.225 67.648 166.849 66.5173 168.727 64.256C170.604 61.952 171.543 58.9867 171.543 55.36C171.543 53.1413 171.073 51.1147 170.135 49.28C169.196 47.4027 167.916 45.9093 166.295 44.8C164.716 43.648 162.903 43.072 160.855 43.072C157.484 43.072 154.86 44.1813 152.983 46.4C151.105 48.6187 150.167 51.5627 150.167 55.232C150.167 57.4507 150.636 59.52 151.575 61.44C152.513 63.3173 153.772 64.832 155.351 65.984C156.972 67.0933 158.807 67.648 160.855 67.648ZM191.44 72L180.944 40.256L186.256 38.4L194.832 65.472L202.64 41.088H208.848L216.464 65.472L224.976 38.4L230.096 40.256L219.536 72H213.2L205.52 47.232L197.776 72H191.44Z" fill="black"/>
</svg>
